<mxfile host="65bd71144e">
    <diagram id="JM0SVlIy92VFg0qSK91R" name="Page-1">
        <mxGraphModel dx="273" dy="327" grid="0" gridSize="10" guides="1" tooltips="1" connect="1" arrows="1" fold="1" page="1" pageScale="1" pageWidth="850" pageHeight="1100" math="0" shadow="0">
            <root>
                <mxCell id="0"/>
                <mxCell id="1" parent="0"/>
                <mxCell id="99" value="" style="group" parent="1" vertex="1" connectable="0">
                    <mxGeometry x="420" y="119" width="850" height="216" as="geometry"/>
                </mxCell>
                <mxCell id="100" value="" style="rounded=0;whiteSpace=wrap;html=1;" parent="99" vertex="1">
                    <mxGeometry width="850" height="216" as="geometry"/>
                </mxCell>
                <mxCell id="102" value="DATA BASE" style="text;html=1;strokeColor=none;fillColor=none;align=center;verticalAlign=middle;whiteSpace=wrap;rounded=0;labelBackgroundColor=none;labelBorderColor=none;fontSize=20;fontStyle=1" parent="99" vertex="1">
                    <mxGeometry x="357.2323529411765" y="12.96" width="135.5392156862745" height="21.6" as="geometry"/>
                </mxCell>
                <mxCell id="103" value="" style="rounded=0;whiteSpace=wrap;html=1;labelBackgroundColor=none;fontSize=16;align=center;fillColor=#ffe6cc;strokeColor=#d79b00;" parent="99" vertex="1">
                    <mxGeometry x="9.681372549019608" y="54" width="371.7647058823529" height="151.20000000000002" as="geometry"/>
                </mxCell>
                <mxCell id="104" value="" style="rounded=0;whiteSpace=wrap;html=1;labelBackgroundColor=none;fontSize=16;align=center;" parent="99" vertex="1">
                    <mxGeometry x="9.681372549019608" y="86.4" width="290.44117647058823" height="118.80000000000001" as="geometry"/>
                </mxCell>
                <mxCell id="105" value="Photos" style="text;html=1;strokeColor=none;fillColor=none;align=center;verticalAlign=middle;whiteSpace=wrap;rounded=0;labelBackgroundColor=none;fontSize=18;fontColor=#333333;fontStyle=1" parent="99" vertex="1">
                    <mxGeometry x="156.83450980392158" y="54" width="77.45098039215686" height="21.6" as="geometry"/>
                </mxCell>
                <mxCell id="106" value="" style="rounded=0;whiteSpace=wrap;html=1;labelBackgroundColor=none;fontSize=16;fontColor=#333333;strokeColor=#666666;align=center;fillColor=#f5f5f5;" parent="99" vertex="1">
                    <mxGeometry x="9.681372549019608" y="86.4" width="371.7647058823529" height="118.80000000000001" as="geometry"/>
                </mxCell>
                <mxCell id="63" value="" style="shape=table;startSize=0;container=1;collapsible=0;childLayout=tableLayout;" parent="99" vertex="1">
                    <mxGeometry x="9.68" y="87.2" width="371.32" height="118" as="geometry"/>
                </mxCell>
                <mxCell id="64" value="" style="shape=partialRectangle;collapsible=0;dropTarget=0;pointerEvents=0;fillColor=none;top=0;left=0;bottom=0;right=0;points=[[0,0.5],[1,0.5]];portConstraint=eastwest;" parent="63" vertex="1">
                    <mxGeometry width="371.32" height="33" as="geometry"/>
                </mxCell>
                <mxCell id="65" value="ID" style="shape=partialRectangle;html=1;whiteSpace=wrap;connectable=0;overflow=hidden;fillColor=#fff2cc;top=0;left=0;bottom=0;right=0;strokeColor=#d6b656;fontColor=#333333;fontStyle=1" parent="64" vertex="1">
                    <mxGeometry width="123" height="33" as="geometry"/>
                </mxCell>
                <mxCell id="66" value="url" style="shape=partialRectangle;html=1;whiteSpace=wrap;connectable=0;overflow=hidden;fillColor=#fff2cc;top=0;left=0;bottom=0;right=0;strokeColor=#d6b656;fontColor=#333333;fontStyle=1" parent="64" vertex="1">
                    <mxGeometry x="123" width="124" height="33" as="geometry"/>
                </mxCell>
                <mxCell id="67" value="user_id" style="shape=partialRectangle;html=1;whiteSpace=wrap;connectable=0;overflow=hidden;fillColor=#fff2cc;top=0;left=0;bottom=0;right=0;strokeColor=#d6b656;fontColor=#333333;fontStyle=1" parent="64" vertex="1">
                    <mxGeometry x="247" width="124" height="33" as="geometry"/>
                </mxCell>
                <mxCell id="68" value="" style="shape=partialRectangle;collapsible=0;dropTarget=0;pointerEvents=0;fillColor=none;top=0;left=0;bottom=0;right=0;points=[[0,0.5],[1,0.5]];portConstraint=eastwest;fontSize=13;" parent="63" vertex="1">
                    <mxGeometry y="33" width="371.32" height="22" as="geometry"/>
                </mxCell>
                <mxCell id="69" value="1" style="shape=partialRectangle;html=1;whiteSpace=wrap;connectable=0;overflow=hidden;fillColor=#f5f5f5;top=0;left=0;bottom=0;right=0;fontColor=#333333;strokeColor=#666666;fontSize=13;" parent="68" vertex="1">
                    <mxGeometry width="123" height="22" as="geometry"/>
                </mxCell>
                <mxCell id="70" value="http://img1.jpg" style="shape=partialRectangle;html=1;whiteSpace=wrap;connectable=0;overflow=hidden;fillColor=#f5f5f5;top=0;left=0;bottom=0;right=0;fontColor=#333333;strokeColor=#666666;fontSize=13;" parent="68" vertex="1">
                    <mxGeometry x="123" width="124" height="22" as="geometry"/>
                </mxCell>
                <mxCell id="71" value="4" style="shape=partialRectangle;html=1;whiteSpace=wrap;connectable=0;overflow=hidden;fillColor=#f5f5f5;top=0;left=0;bottom=0;right=0;fontColor=#333333;strokeColor=#666666;fontSize=13;" parent="68" vertex="1">
                    <mxGeometry x="247" width="124" height="22" as="geometry"/>
                </mxCell>
                <mxCell id="72" value="" style="shape=partialRectangle;collapsible=0;dropTarget=0;pointerEvents=0;fillColor=none;top=0;left=0;bottom=0;right=0;points=[[0,0.5],[1,0.5]];portConstraint=eastwest;fontSize=13;" parent="63" vertex="1">
                    <mxGeometry y="55" width="371.32" height="21" as="geometry"/>
                </mxCell>
                <mxCell id="73" value="2" style="shape=partialRectangle;html=1;whiteSpace=wrap;connectable=0;overflow=hidden;fillColor=#f5f5f5;top=0;left=0;bottom=0;right=0;fontColor=#333333;strokeColor=#666666;fontSize=13;" parent="72" vertex="1">
                    <mxGeometry width="123" height="21" as="geometry"/>
                </mxCell>
                <mxCell id="74" value="http://img2.jpg" style="shape=partialRectangle;html=1;whiteSpace=wrap;connectable=0;overflow=hidden;fillColor=#f5f5f5;top=0;left=0;bottom=0;right=0;fontColor=#333333;strokeColor=#666666;fontSize=13;" parent="72" vertex="1">
                    <mxGeometry x="123" width="124" height="21" as="geometry"/>
                </mxCell>
                <mxCell id="75" value="4" style="shape=partialRectangle;html=1;whiteSpace=wrap;connectable=0;overflow=hidden;fillColor=#f5f5f5;top=0;left=0;bottom=0;right=0;fontColor=#333333;strokeColor=#666666;fontSize=13;" parent="72" vertex="1">
                    <mxGeometry x="247" width="124" height="21" as="geometry"/>
                </mxCell>
                <mxCell id="76" value="" style="shape=partialRectangle;collapsible=0;dropTarget=0;pointerEvents=0;fillColor=none;top=0;left=0;bottom=0;right=0;points=[[0,0.5],[1,0.5]];portConstraint=eastwest;fontSize=13;" parent="63" vertex="1">
                    <mxGeometry y="76" width="371.32" height="22" as="geometry"/>
                </mxCell>
                <mxCell id="77" value="3" style="shape=partialRectangle;html=1;whiteSpace=wrap;connectable=0;overflow=hidden;fillColor=#f5f5f5;top=0;left=0;bottom=0;right=0;fontColor=#333333;strokeColor=#666666;fontSize=13;" parent="76" vertex="1">
                    <mxGeometry width="123" height="22" as="geometry"/>
                </mxCell>
                <mxCell id="78" value="&lt;span style=&quot;font-size: 13px;&quot;&gt;http://img3.jpg&lt;/span&gt;" style="shape=partialRectangle;html=1;whiteSpace=wrap;connectable=0;overflow=hidden;fillColor=#f5f5f5;top=0;left=0;bottom=0;right=0;fontColor=#333333;strokeColor=#666666;fontSize=13;" parent="76" vertex="1">
                    <mxGeometry x="123" width="124" height="22" as="geometry"/>
                </mxCell>
                <mxCell id="79" value="1" style="shape=partialRectangle;html=1;whiteSpace=wrap;connectable=0;overflow=hidden;fillColor=#f5f5f5;top=0;left=0;bottom=0;right=0;fontColor=#333333;strokeColor=#666666;fontSize=13;" parent="76" vertex="1">
                    <mxGeometry x="247" width="124" height="22" as="geometry"/>
                </mxCell>
                <mxCell id="80" value="" style="shape=partialRectangle;collapsible=0;dropTarget=0;pointerEvents=0;fillColor=none;top=0;left=0;bottom=0;right=0;points=[[0,0.5],[1,0.5]];portConstraint=eastwest;fontSize=13;" parent="63" vertex="1">
                    <mxGeometry y="98" width="371.32" height="20" as="geometry"/>
                </mxCell>
                <mxCell id="81" value="4" style="shape=partialRectangle;html=1;whiteSpace=wrap;connectable=0;overflow=hidden;fillColor=#f5f5f5;top=0;left=0;bottom=0;right=0;fontColor=#333333;strokeColor=#666666;fontSize=13;" parent="80" vertex="1">
                    <mxGeometry width="123" height="20" as="geometry"/>
                </mxCell>
                <mxCell id="82" value="&lt;span style=&quot;font-size: 13px;&quot;&gt;http://img4.jpg&lt;/span&gt;" style="shape=partialRectangle;html=1;whiteSpace=wrap;connectable=0;overflow=hidden;fillColor=#f5f5f5;top=0;left=0;bottom=0;right=0;fontColor=#333333;strokeColor=#666666;fontSize=13;" parent="80" vertex="1">
                    <mxGeometry x="123" width="124" height="20" as="geometry"/>
                </mxCell>
                <mxCell id="83" value="2" style="shape=partialRectangle;html=1;whiteSpace=wrap;connectable=0;overflow=hidden;fillColor=#f5f5f5;top=0;left=0;bottom=0;right=0;fontColor=#333333;strokeColor=#666666;fontSize=13;" parent="80" vertex="1">
                    <mxGeometry x="247" width="124" height="20" as="geometry"/>
                </mxCell>
                <mxCell id="101" value="" style="endArrow=none;html=1;rounded=0;strokeColor=#E6E6E6;" parent="99" edge="1">
                    <mxGeometry width="50" height="50" relative="1" as="geometry">
                        <mxPoint x="-0.21999999999999353" y="40" as="sourcePoint"/>
                        <mxPoint x="850" y="40" as="targetPoint"/>
                    </mxGeometry>
                </mxCell>
                <mxCell id="119" value="" style="rounded=0;whiteSpace=wrap;html=1;labelBackgroundColor=none;fontSize=16;align=center;fillColor=#ffe6cc;strokeColor=#d79b00;" parent="99" vertex="1">
                    <mxGeometry x="460.0013725490196" y="54" width="371.7647058823529" height="151.20000000000002" as="geometry"/>
                </mxCell>
                <mxCell id="120" value="" style="shape=table;startSize=0;container=1;collapsible=0;childLayout=tableLayout;" parent="99" vertex="1">
                    <mxGeometry x="460" y="87.19999999999999" width="371.32" height="118" as="geometry"/>
                </mxCell>
                <mxCell id="121" value="" style="shape=partialRectangle;collapsible=0;dropTarget=0;pointerEvents=0;fillColor=none;top=0;left=0;bottom=0;right=0;points=[[0,0.5],[1,0.5]];portConstraint=eastwest;" parent="120" vertex="1">
                    <mxGeometry width="371.32" height="33" as="geometry"/>
                </mxCell>
                <mxCell id="122" value="ID" style="shape=partialRectangle;html=1;whiteSpace=wrap;connectable=0;overflow=hidden;fillColor=#fff2cc;top=0;left=0;bottom=0;right=0;strokeColor=#d6b656;fontColor=#333333;fontStyle=1" parent="121" vertex="1">
                    <mxGeometry width="123" height="33" as="geometry"/>
                </mxCell>
                <mxCell id="123" value="url" style="shape=partialRectangle;html=1;whiteSpace=wrap;connectable=0;overflow=hidden;fillColor=#fff2cc;top=0;left=0;bottom=0;right=0;strokeColor=#d6b656;fontColor=#333333;fontStyle=1" parent="121" vertex="1">
                    <mxGeometry x="123" width="124" height="33" as="geometry"/>
                </mxCell>
                <mxCell id="124" value="user_id" style="shape=partialRectangle;html=1;whiteSpace=wrap;connectable=0;overflow=hidden;fillColor=#fff2cc;top=0;left=0;bottom=0;right=0;strokeColor=#d6b656;fontColor=#333333;fontStyle=1" parent="121" vertex="1">
                    <mxGeometry x="247" width="124" height="33" as="geometry"/>
                </mxCell>
                <mxCell id="125" value="" style="shape=partialRectangle;collapsible=0;dropTarget=0;pointerEvents=0;fillColor=none;top=0;left=0;bottom=0;right=0;points=[[0,0.5],[1,0.5]];portConstraint=eastwest;fontSize=13;" parent="120" vertex="1">
                    <mxGeometry y="33" width="371.32" height="22" as="geometry"/>
                </mxCell>
                <mxCell id="126" value="1" style="shape=partialRectangle;html=1;whiteSpace=wrap;connectable=0;overflow=hidden;fillColor=#f5f5f5;top=0;left=0;bottom=0;right=0;fontColor=#333333;strokeColor=#666666;fontSize=13;" parent="125" vertex="1">
                    <mxGeometry width="123" height="22" as="geometry"/>
                </mxCell>
                <mxCell id="127" value="http://img1.jpg" style="shape=partialRectangle;html=1;whiteSpace=wrap;connectable=0;overflow=hidden;fillColor=#f5f5f5;top=0;left=0;bottom=0;right=0;fontColor=#333333;strokeColor=#666666;fontSize=13;" parent="125" vertex="1">
                    <mxGeometry x="123" width="124" height="22" as="geometry"/>
                </mxCell>
                <mxCell id="128" value="4" style="shape=partialRectangle;html=1;whiteSpace=wrap;connectable=0;overflow=hidden;fillColor=#f5f5f5;top=0;left=0;bottom=0;right=0;fontColor=#333333;strokeColor=#666666;fontSize=13;" parent="125" vertex="1">
                    <mxGeometry x="247" width="124" height="22" as="geometry"/>
                </mxCell>
                <mxCell id="129" value="" style="shape=partialRectangle;collapsible=0;dropTarget=0;pointerEvents=0;fillColor=none;top=0;left=0;bottom=0;right=0;points=[[0,0.5],[1,0.5]];portConstraint=eastwest;fontSize=13;" parent="120" vertex="1">
                    <mxGeometry y="55" width="371.32" height="21" as="geometry"/>
                </mxCell>
                <mxCell id="130" value="2" style="shape=partialRectangle;html=1;whiteSpace=wrap;connectable=0;overflow=hidden;fillColor=#f5f5f5;top=0;left=0;bottom=0;right=0;fontColor=#333333;strokeColor=#666666;fontSize=13;" parent="129" vertex="1">
                    <mxGeometry width="123" height="21" as="geometry"/>
                </mxCell>
                <mxCell id="131" value="http://img2.jpg" style="shape=partialRectangle;html=1;whiteSpace=wrap;connectable=0;overflow=hidden;fillColor=#f5f5f5;top=0;left=0;bottom=0;right=0;fontColor=#333333;strokeColor=#666666;fontSize=13;" parent="129" vertex="1">
                    <mxGeometry x="123" width="124" height="21" as="geometry"/>
                </mxCell>
                <mxCell id="132" value="4" style="shape=partialRectangle;html=1;whiteSpace=wrap;connectable=0;overflow=hidden;fillColor=#f5f5f5;top=0;left=0;bottom=0;right=0;fontColor=#333333;strokeColor=#666666;fontSize=13;" parent="129" vertex="1">
                    <mxGeometry x="247" width="124" height="21" as="geometry"/>
                </mxCell>
                <mxCell id="133" value="" style="shape=partialRectangle;collapsible=0;dropTarget=0;pointerEvents=0;fillColor=none;top=0;left=0;bottom=0;right=0;points=[[0,0.5],[1,0.5]];portConstraint=eastwest;fontSize=13;" parent="120" vertex="1">
                    <mxGeometry y="76" width="371.32" height="22" as="geometry"/>
                </mxCell>
                <mxCell id="134" value="3" style="shape=partialRectangle;html=1;whiteSpace=wrap;connectable=0;overflow=hidden;fillColor=#f5f5f5;top=0;left=0;bottom=0;right=0;fontColor=#333333;strokeColor=#666666;fontSize=13;" parent="133" vertex="1">
                    <mxGeometry width="123" height="22" as="geometry"/>
                </mxCell>
                <mxCell id="135" value="&lt;span style=&quot;font-size: 13px;&quot;&gt;http://img3.jpg&lt;/span&gt;" style="shape=partialRectangle;html=1;whiteSpace=wrap;connectable=0;overflow=hidden;fillColor=#f5f5f5;top=0;left=0;bottom=0;right=0;fontColor=#333333;strokeColor=#666666;fontSize=13;" parent="133" vertex="1">
                    <mxGeometry x="123" width="124" height="22" as="geometry"/>
                </mxCell>
                <mxCell id="136" value="1" style="shape=partialRectangle;html=1;whiteSpace=wrap;connectable=0;overflow=hidden;fillColor=#f5f5f5;top=0;left=0;bottom=0;right=0;fontColor=#333333;strokeColor=#666666;fontSize=13;" parent="133" vertex="1">
                    <mxGeometry x="247" width="124" height="22" as="geometry"/>
                </mxCell>
                <mxCell id="137" value="" style="shape=partialRectangle;collapsible=0;dropTarget=0;pointerEvents=0;fillColor=none;top=0;left=0;bottom=0;right=0;points=[[0,0.5],[1,0.5]];portConstraint=eastwest;fontSize=13;" parent="120" vertex="1">
                    <mxGeometry y="98" width="371.32" height="20" as="geometry"/>
                </mxCell>
                <mxCell id="138" value="4" style="shape=partialRectangle;html=1;whiteSpace=wrap;connectable=0;overflow=hidden;fillColor=#f5f5f5;top=0;left=0;bottom=0;right=0;fontColor=#333333;strokeColor=#666666;fontSize=13;" parent="137" vertex="1">
                    <mxGeometry width="123" height="20" as="geometry"/>
                </mxCell>
                <mxCell id="139" value="&lt;span style=&quot;font-size: 13px;&quot;&gt;http://img4.jpg&lt;/span&gt;" style="shape=partialRectangle;html=1;whiteSpace=wrap;connectable=0;overflow=hidden;fillColor=#f5f5f5;top=0;left=0;bottom=0;right=0;fontColor=#333333;strokeColor=#666666;fontSize=13;" parent="137" vertex="1">
                    <mxGeometry x="123" width="124" height="20" as="geometry"/>
                </mxCell>
                <mxCell id="140" value="2" style="shape=partialRectangle;html=1;whiteSpace=wrap;connectable=0;overflow=hidden;fillColor=#f5f5f5;top=0;left=0;bottom=0;right=0;fontColor=#333333;strokeColor=#666666;fontSize=13;" parent="137" vertex="1">
                    <mxGeometry x="247" width="124" height="20" as="geometry"/>
                </mxCell>
                <mxCell id="192" value="Photos" style="text;html=1;strokeColor=none;fillColor=none;align=center;verticalAlign=middle;whiteSpace=wrap;rounded=0;labelBackgroundColor=none;fontSize=18;fontColor=#333333;fontStyle=1" parent="99" vertex="1">
                    <mxGeometry x="606.9345098039216" y="64.80000000000001" width="77.45098039215686" height="21.6" as="geometry"/>
                </mxCell>
                <mxCell id="193" style="edgeStyle=orthogonalEdgeStyle;rounded=0;orthogonalLoop=1;jettySize=auto;html=1;exitX=1;exitY=0.5;exitDx=0;exitDy=0;fontSize=20;fontColor=#333333;entryX=0.001;entryY=0.69;entryDx=0;entryDy=0;entryPerimeter=0;" parent="99" source="68" target="137" edge="1">
                    <mxGeometry relative="1" as="geometry"/>
                </mxCell>
                <mxCell id="195" style="edgeStyle=orthogonalEdgeStyle;rounded=0;orthogonalLoop=1;jettySize=auto;html=1;entryX=0.002;entryY=0.673;entryDx=0;entryDy=0;entryPerimeter=0;fontSize=20;fontColor=#333333;" parent="99" source="72" target="137" edge="1">
                    <mxGeometry relative="1" as="geometry"/>
                </mxCell>
                <mxCell id="196" style="edgeStyle=orthogonalEdgeStyle;rounded=0;orthogonalLoop=1;jettySize=auto;html=1;fontSize=20;fontColor=#333333;" parent="99" source="76" target="125" edge="1">
                    <mxGeometry relative="1" as="geometry">
                        <Array as="points">
                            <mxPoint x="430" y="174"/>
                            <mxPoint x="430" y="131"/>
                        </Array>
                    </mxGeometry>
                </mxCell>
                <mxCell id="197" style="edgeStyle=orthogonalEdgeStyle;rounded=0;orthogonalLoop=1;jettySize=auto;html=1;fontSize=20;fontColor=#333333;entryX=-0.008;entryY=0.76;entryDx=0;entryDy=0;entryPerimeter=0;exitX=1;exitY=0.5;exitDx=0;exitDy=0;" parent="99" source="80" target="129" edge="1">
                    <mxGeometry relative="1" as="geometry">
                        <Array as="points">
                            <mxPoint x="398" y="195"/>
                            <mxPoint x="398" y="187"/>
                            <mxPoint x="440" y="187"/>
                            <mxPoint x="440" y="158"/>
                        </Array>
                    </mxGeometry>
                </mxCell>
                <mxCell id="199" value="" style="shape=curlyBracket;whiteSpace=wrap;html=1;rounded=1;flipH=1;fontSize=20;strokeColor=#b85450;fillColor=#f8cecc;rotation=90;" parent="1" vertex="1">
                    <mxGeometry x="720" y="290" width="40" height="120" as="geometry"/>
                </mxCell>
                <mxCell id="201" value="&lt;font color=&quot;#333333&quot;&gt;&lt;b&gt;Foreign Key&lt;/b&gt;&lt;/font&gt;" style="rounded=0;whiteSpace=wrap;html=1;fontSize=20;strokeColor=#b85450;fillColor=#f8cecc;" parent="1" vertex="1">
                    <mxGeometry x="670" y="370" width="140" height="30" as="geometry"/>
                </mxCell>
                <mxCell id="202" value="" style="shape=curlyBracket;whiteSpace=wrap;html=1;rounded=1;flipH=1;fontSize=20;strokeColor=#b85450;fillColor=#f8cecc;rotation=90;" parent="1" vertex="1">
                    <mxGeometry x="475" y="290" width="40" height="120" as="geometry"/>
                </mxCell>
                <mxCell id="203" value="&lt;font color=&quot;#333333&quot;&gt;&lt;b&gt;Primary Key&lt;/b&gt;&lt;/font&gt;" style="rounded=0;whiteSpace=wrap;html=1;fontSize=20;strokeColor=#b85450;fillColor=#f8cecc;" parent="1" vertex="1">
                    <mxGeometry x="425" y="370" width="140" height="30" as="geometry"/>
                </mxCell>
            </root>
        </mxGraphModel>
    </diagram>
</mxfile>